<svg width="44" height="44" viewBox="0 0 44 44" fill="none" xmlns="http://www.w3.org/2000/svg">
<rect width="44" height="44" rx="22" fill="#F5F5F5"/>
<path fill-rule="evenodd" clip-rule="evenodd" d="M28.7657 28.7559C28.4533 29.0814 27.9467 29.0814 27.6343 28.7559L21.2343 22.0893C20.9219 21.7638 20.9219 21.2362 21.2343 20.9107L27.6343 14.2441C27.9467 13.9186 28.4533 13.9186 28.7657 14.2441C29.0781 14.5695 29.0781 15.0972 28.7657 15.4226L22.9314 21.5L28.7657 27.5774C29.0781 27.9028 29.0781 28.4305 28.7657 28.7559Z" fill="black" stroke="black" stroke-width="0.5" stroke-linecap="round" stroke-linejoin="round"/>
<path fill-rule="evenodd" clip-rule="evenodd" d="M15.2343 28.7559C15.5467 29.0814 16.0533 29.0814 16.3657 28.7559L22.7657 22.0893C23.0781 21.7638 23.0781 21.2362 22.7657 20.9107L16.3657 14.2441C16.0533 13.9186 15.5467 13.9186 15.2343 14.2441C14.9219 14.5695 14.9219 15.0972 15.2343 15.4226L21.0686 21.5L15.2343 27.5774C14.9219 27.9028 14.9219 28.4305 15.2343 28.7559Z" fill="black" stroke="black" stroke-width="0.5" stroke-linecap="round" stroke-linejoin="round"/>
</svg>
