<svg width="24" height="24" viewBox="0 0 24 24" fill="none" xmlns="http://www.w3.org/2000/svg">
<path d="M6.76017 22H17.2401C20.0001 22 21.1001 20.31 21.2301 18.25L21.7501 9.99C21.8901 7.83 20.1701 6 18.0001 6C17.3901 6 16.8301 5.65 16.5501 5.11L15.8301 3.66C15.3701 2.75 14.1701 2 13.1501 2H10.8601C9.83017 2 8.63017 2.75 8.17017 3.66L7.45017 5.11C7.17017 5.65 6.61017 6 6.00017 6C3.83017 6 2.11017 7.83 2.25017 9.99L2.77017 18.25C2.89017 20.31 4.00017 22 6.76017 22Z" stroke="#8C8C8C" stroke-width="1.5" stroke-linecap="round" stroke-linejoin="round"/>
<path d="M10.5 8H13.5" stroke="#8C8C8C" stroke-width="1.5" stroke-linecap="round" stroke-linejoin="round"/>
<path d="M12 18C13.79 18 15.25 16.54 15.25 14.75C15.25 12.96 13.79 11.5 12 11.5C10.21 11.5 8.75 12.96 8.75 14.75C8.75 16.54 10.21 18 12 18Z" stroke="#8C8C8C" stroke-width="1.5" stroke-linecap="round" stroke-linejoin="round"/>
</svg>
