<svg width="19" height="23" viewBox="0 0 19 23" fill="none" xmlns="http://www.w3.org/2000/svg">
<path d="M9.367 11.5504C12.2804 11.5504 14.6422 9.18862 14.6422 6.2752C14.6422 3.36179 12.2804 1 9.367 1C6.45359 1 4.0918 3.36179 4.0918 6.2752C4.0918 9.18862 6.45359 11.5504 9.367 11.5504Z" fill="#636262" stroke="#636262" stroke-width="1.5" stroke-linecap="round" stroke-linejoin="round"/>
<path fill-rule="evenodd" clip-rule="evenodd" d="M1.00002 18.8875C0.998618 18.5166 1.08156 18.1503 1.24257 17.8162C1.74786 16.8057 3.17277 16.2701 4.35515 16.0275C5.20787 15.8456 6.07238 15.724 6.94222 15.6637C8.55267 15.5223 10.1724 15.5223 11.7829 15.6637C12.6526 15.7247 13.5171 15.8462 14.37 16.0275C15.5523 16.2701 16.9772 16.7551 17.4825 17.8162C17.8063 18.4972 17.8063 19.2878 17.4825 19.9688C16.9772 21.0299 15.5523 21.5149 14.37 21.7474C13.5182 21.9369 12.6534 22.0619 11.7829 22.1213C10.4721 22.2324 9.15521 22.2527 7.84163 22.1819C7.53846 22.1819 7.24539 22.1819 6.94222 22.1213C6.07495 22.0626 5.21344 21.9376 4.36525 21.7474C3.17277 21.5149 1.75797 21.0299 1.24257 19.9688C1.08238 19.6308 0.999523 19.2614 1.00002 18.8875Z" fill="#636262" stroke="#636262" stroke-width="1.5" stroke-linecap="round" stroke-linejoin="round"/>
</svg>
